<svg xmlns="http://www.w3.org/2000/svg" viewBox="0 0 1024 1024">
  <defs>
    <linearGradient id="bg" x1="0" y1="0" x2="0" y2="1">
      <stop offset="0" stop-color="#20406a"/>
      <stop offset="1" stop-color="#0e2240"/>
    </linearGradient>
  </defs>
  <rect x="0" y="0" width="1024" height="1024" rx="224" fill="url(#bg)"/>
  <!-- blueprint grid -->
  <g stroke="#7ea8d8" stroke-width="6" opacity="0.24">
    <path d="M 128 64 V 960 M 320 64 V 960 M 512 64 V 960 M 704 64 V 960 M 896 64 V 960"/>
    <path d="M 64 128 H 960 M 64 320 H 960 M 64 512 H 960 M 64 704 H 960 M 64 896 H 960"/>
  </g>
  <g stroke="#ffffff" stroke-width="62" fill="none" stroke-linecap="round">
    <path d="M 312 744 L 232 744 L 232 280 L 792 280 L 792 744 L 472 744"/>
    <path d="M 312 744 A 140 140 0 0 1 452 604" stroke-width="34"/>
    <path d="M 568 280 L 568 470"/>
  </g>
  <!-- dimension line under the plan -->
  <g stroke="#8fd0ff" stroke-width="20" fill="none" stroke-linecap="round" opacity="0.9">
    <path d="M 232 856 H 792 M 232 826 V 886 M 792 826 V 886"/>
  </g>
</svg>
